<svg xmlns="http://www.w3.org/2000/svg" viewBox="0 0 128 128" role="img" aria-label="Dragon">
  <defs>
    <linearGradient id="g" x1="0" y1="0" x2="1" y2="1">
      <stop offset="0" stop-color="#ff6b6b"/>
      <stop offset="1" stop-color="#ff355e"/>
    </linearGradient>
    <linearGradient id="g2" x1="0" y1="0" x2="1" y2="1">
      <stop offset="0" stop-color="#ffd86b"/>
      <stop offset="1" stop-color="#ff9f1c"/>
    </linearGradient>
    <filter id="s" x="-30%" y="-30%" width="160%" height="160%">
      <feDropShadow dx="4" dy="4" stdDeviation="0" flood-color="#140a2a" flood-opacity="1"/>
    </filter>
  </defs>
  <g filter="url(#s)">
    <path d="M30 88c-6-28 8-52 40-56 26-3 46 14 46 36 0 22-18 40-40 40H52c-10 0-18-6-22-20z"
      fill="url(#g)" stroke="#000" stroke-width="6" stroke-linejoin="round"/>
    <path d="M78 28l10-10 10 12" fill="none" stroke="#000" stroke-width="6" stroke-linecap="round" stroke-linejoin="round"/>
    <path d="M46 56l-14-8 6 16" fill="none" stroke="#000" stroke-width="6" stroke-linecap="round" stroke-linejoin="round"/>
    <circle cx="72" cy="60" r="6" fill="#000"/>
    <circle cx="94" cy="60" r="6" fill="#000"/>
    <path d="M78 78c10 8 22 8 32 0" fill="none" stroke="#000" stroke-width="6" stroke-linecap="round"/>
    <path d="M84 92l8 8 10-10" fill="none" stroke="#000" stroke-width="6" stroke-linecap="round" stroke-linejoin="round"/>
    <path d="M24 92c10 6 24 10 38 10" fill="none" stroke="#000" stroke-width="6" stroke-linecap="round"/>
    <path d="M22 72c10-2 16 2 20 8" fill="none" stroke="#000" stroke-width="6" stroke-linecap="round"/>
    <path d="M98 48l8-10 8 12" fill="url(#g2)" stroke="#000" stroke-width="6" stroke-linejoin="round"/>
  </g>
</svg>
